/* XPM */
static char * bitcoin32_xpm[] = {
"32 32 129 2",
"  	c None",
". 	c #1B1F73",
"+ 	c #181C72",
"@ 	c #2E317F",
"# 	c #292D7C",
"$ 	c #25297A",
"% 	c #222678",
"& 	c #1F2276",
"* 	c #1B1F74",
"= 	c #161A70",
"- 	c #13176F",
"; 	c #12166E",
"> 	c #10146D",
", 	c #3B3E87",
"' 	c #363A84",
") 	c #11156E",
"! 	c #0F136C",
"~ 	c #494C90",
"{ 	c #44478D",
"] 	c #0E126C",
"^ 	c #555897",
"/ 	c #505293",
"( 	c #12156E",
"_ 	c #61649E",
": 	c #5C5F9A",
"< 	c #6D6FA5",
"[ 	c #676AA2",
"} 	c #151970",
"| 	c #14186F",
"1 	c #7577AA",
"2 	c #171B72",
"3 	c #8284B2",
"4 	c #1A1E73",
"5 	c #8E8FB8",
"6 	c #898BB6",
"7 	c #9697BD",
"8 	c #232679",
"9 	c #222677",
"0 	c #9C9EC2",
"a 	c #E50000",
"b 	c #E60000",
"c 	c #DA0000",
"d 	c #262A7B",
"e 	c #A8A9C9",
"f 	c #A6A7C7",
"g 	c #E40000",
"h 	c #E00000",
"i 	c #2D307E",
"j 	c #B0B1CD",
"k 	c #E70000",
"l 	c #E80000",
"m 	c #323581",
"n 	c #313481",
"o 	c #B7B8D2",
"p 	c #A40000",
"q 	c #D00000",
"r 	c #EA0000",
"s 	c #CE0000",
"t 	c #860000",
"u 	c #D90000",
"v 	c #363984",
"w 	c #BEBFD6",
"x 	c #7C0000",
"y 	c #B20000",
"z 	c #EB0000",
"A 	c #EC0000",
"B 	c #F10000",
"C 	c #E10000",
"D 	c #770000",
"E 	c #2C0000",
"F 	c #3D4089",
"G 	c #C5C6DA",
"H 	c #7F0000",
"I 	c #5C0000",
"J 	c #800000",
"K 	c #9C0000",
"L 	c #A00000",
"M 	c #870000",
"N 	c #4C0000",
"O 	c #020000",
"P 	c #44478C",
"Q 	c #CCCCDE",
"R 	c #4B4E90",
"S 	c #D1D2E1",
"T 	c #820000",
"U 	c #9A0000",
"V 	c #E30000",
"W 	c #D6D6E3",
"X 	c #530000",
"Y 	c #DB0000",
"Z 	c #640000",
"` 	c #A50000",
" .	c #5D609B",
"..	c #DBDBE7",
"+.	c #6668A1",
"@.	c #E0E0EA",
"#.	c #DFDEE9",
"$.	c #7274A8",
"%.	c #E3E4EB",
"&.	c #7A7CAD",
"*.	c #E7E7EE",
"=.	c #E6E7ED",
"-.	c #8687B4",
";.	c #8183B0",
">.	c #E9E9EF",
",.	c #8E90B9",
"'.	c #EBEBF1",
").	c #9A9BC0",
"!.	c #EEEEF3",
"~.	c #EDEDF2",
"{.	c #A6A8C7",
"].	c #EFEFF3",
"^.	c #B7B8D1",
"/.	c #B1B2CE",
"(.	c #F0F1F4",
"_.	c #C1C2D7",
":.	c #BCBDD5",
"<.	c #F0F0F3",
"[.	c #ECECF1",
"}.	c #D3D4E2",
"|.	c #D0D0E0",
"1.	c #CBCCDD",
"2.	c #EAEBF0",
"3.	c #E8E8EE",
"4.	c #E4E5ED",
"5.	c #E2E3EB",
"6.	c #DFDFE9",
"7.	c #DCDCE7",
"8.	c #D7D8E5",
"                              . +                               ",
"                      @ # $ % & * + = - ; >                     ",
"                  , '                     ; ) !                 ",
"              ~ {                             ) > ]             ",
"            ^ /                                   ( )           ",
"          _ :                                       - ;         ",
"        < [                                           } |       ",
"        1                                               2       ",
"      3                                                   4     ",
"    5 6                                                   &     ",
"    7                                                     8 9   ",
"    0           a                             b c           d   ",
"  e f         a a a g                       a a h           i   ",
"  j           a a k a a                 a a l b h           m n ",
"  o           a g p q g b a a       a b r s t u h             v ",
"  w           a g x   y s z A r r A B C D E   b h             F ",
"  G           a g H       I J K L M N O       a h             P ",
"  Q           a g H                           a h             R ",
"  S           a g T           b b U           a V           ^   ",
"    W           u X           V Y Z           a `            .  ",
"    ..                          I                           +.  ",
"    @.#.                                                  $.<   ",
"      %.                                                  &.    ",
"      *.=.                                              -.;.    ",
"        >.                                              ,.      ",
"          '.                                          ).        ",
"          !.~.                                      {.          ",
"              ].                                ^./.            ",
"                (.].                          _.:.              ",
"                    <.].[.              }.|.1.                  ",
"                        ].[.2.3.4.5.6.7.8.                      ",
"                                                                "};
