/* XPM */
static char * bitcoin16_xpm[] = {
"16 16 50 1",
" 	c None",
".	c #2E317E",
"+	c #26297A",
"@	c #1F2276",
"#	c #181C72",
"$	c #14176F",
"%	c #11156D",
"&	c #4C4F92",
"*	c #11146D",
"=	c #61649E",
"-	c #7779AB",
";	c #1E2276",
">	c #E60000",
",	c #272A7C",
"'	c #AFB1CD",
")	c #E40000",
"!	c #DE0000",
"~	c #D80000",
"{	c #E30000",
"]	c #770000",
"^	c #323581",
"/	c #BEBFD5",
"(	c #DF0000",
"_	c #A20000",
":	c #C70000",
"<	c #CB0000",
"[	c #A70000",
"}	c #6B0000",
"|	c #DC0000",
"1	c #7A0000",
"2	c #3E4189",
"3	c #CBCBDE",
"4	c #970000",
"5	c #E80000",
"6	c #4C4F91",
"7	c #D6D7E4",
"8	c #850000",
"9	c #E50000",
"0	c #760000",
"a	c #630000",
"b	c #5C5E9B",
"c	c #E6E6ED",
"d	c #8284B1",
"e	c #9899BF",
"f	c #EFF0F3",
"g	c #B3B5CF",
"h	c #F0F0F3",
"i	c #EEEEF2",
"j	c #CECFDF",
"k	c #C5C6DA",
"                ",
"     .+@#$%     ",
"   &        *   ",
"  =          $  ",
" -            # ",
"              ; ",
"           >   ,",
"'  )!)    ~{]  ^",
"/  (_::<:[}|1  2",
"3  (4      51  6",
"7   8  90  {a  b",
"                ",
" c            d ",
"             e  ",
"   f        g   ",
"    hi    jk    "};
