/* XPM */
static char * bitcoin64_xpm[] = {
"64 64 372 2",
"  	c None",
". 	c #1F2376",
"+ 	c #1E2275",
"@ 	c #1D2175",
"# 	c #1B1F74",
"$ 	c #1A1D73",
"% 	c #191C72",
"& 	c #171B71",
"* 	c #161A70",
"= 	c #151870",
"- 	c #13176F",
"; 	c #12166E",
"> 	c #292D7C",
", 	c #272A7B",
"' 	c #26297A",
") 	c #242779",
"! 	c #222678",
"~ 	c #212577",
"{ 	c #202376",
"] 	c #1E2176",
"^ 	c #1D2074",
"/ 	c #191D73",
"( 	c #181C72",
"_ 	c #171A71",
": 	c #161971",
"< 	c #14186F",
"[ 	c #11156E",
"} 	c #11146D",
"| 	c #10146D",
"1 	c #313581",
"2 	c #2F3380",
"3 	c #2E317F",
"4 	c #2B2F7D",
"5 	c #2A2D7D",
"6 	c #292C7C",
"7 	c #262A7A",
"8 	c #25287A",
"9 	c #161A71",
"0 	c #151970",
"a 	c #141870",
"b 	c #10136D",
"c 	c #0E126C",
"d 	c #383B85",
"e 	c #363983",
"f 	c #343783",
"g 	c #323682",
"h 	c #303380",
"i 	c #2F3280",
"j 	c #2D2F7E",
"k 	c #0F136D",
"l 	c #40438A",
"m 	c #3D4088",
"n 	c #3B3E87",
"o 	c #393C86",
"p 	c #373A84",
"q 	c #0F136C",
"r 	c #0F126C",
"s 	c #44478C",
"t 	c #42458B",
"u 	c #3E4189",
"v 	c #12156E",
"w 	c #4C4F91",
"x 	c #494C90",
"y 	c #484B8F",
"z 	c #46498D",
"A 	c #43468C",
"B 	c #525495",
"C 	c #505293",
"D 	c #4E5092",
"E 	c #4B4E91",
"F 	c #10136C",
"G 	c #575A98",
"H 	c #555897",
"I 	c #535695",
"J 	c #515494",
"K 	c #13166F",
"L 	c #5D5F9C",
"M 	c #5B5E9A",
"N 	c #595B99",
"O 	c #565998",
"P 	c #64669F",
"Q 	c #61649E",
"R 	c #5F619C",
"S 	c #696CA3",
"T 	c #6769A2",
"U 	c #6567A0",
"V 	c #6F72A6",
"W 	c #6D6FA5",
"X 	c #6B6DA3",
"Y 	c #686BA2",
"Z 	c #161970",
"` 	c #7476A9",
" .	c #7173A8",
"..	c #6F71A6",
"+.	c #181B72",
"@.	c #7A7CAD",
"#.	c #7779AC",
"$.	c #7477A9",
"%.	c #7F81B0",
"&.	c #7D7FAF",
"*.	c #7B7DAD",
"=.	c #1A1E73",
"-.	c #8486B3",
";.	c #8183B1",
">.	c #7F81AF",
",.	c #1C2074",
"'.	c #8A8BB5",
").	c #888AB5",
"!.	c #8587B3",
"~.	c #1E2175",
"{.	c #1C1F74",
"].	c #8D8FB9",
"^.	c #8C8EB7",
"/.	c #898BB6",
"(.	c #202377",
"_.	c #1F2275",
":.	c #9294BB",
"<.	c #8F91B9",
"[.	c #222578",
"}.	c #9899BE",
"|.	c #9696BD",
"1.	c #9395BB",
"2.	c #232779",
"3.	c #9B9DC1",
"4.	c #999BBF",
"5.	c #E50000",
"6.	c #252979",
"7.	c #A1A3C4",
"8.	c #A0A0C3",
"9.	c #9D9EC2",
"0.	c #E10000",
"a.	c #7F0000",
"b.	c #272C7C",
"c.	c #A5A6C7",
"d.	c #A3A5C5",
"e.	c #A1A2C4",
"f.	c #E30000",
"g.	c #E70000",
"h.	c #590000",
"i.	c #2A2E7C",
"j.	c #A9AAC9",
"k.	c #A7A8C7",
"l.	c #5B0000",
"m.	c #2D307F",
"n.	c #2C2F7E",
"o.	c #2A2E7D",
"p.	c #ACADCB",
"q.	c #ABACCA",
"r.	c #2D317F",
"s.	c #B0B1CD",
"t.	c #AEB0CC",
"u.	c #E60000",
"v.	c #323581",
"w.	c #313480",
"x.	c #B3B5D0",
"y.	c #B2B3CE",
"z.	c #D40000",
"A.	c #EC0000",
"B.	c #C20000",
"C.	c #353884",
"D.	c #333682",
"E.	c #B9BAD2",
"F.	c #B7B8D1",
"G.	c #B5B6D0",
"H.	c #DB0000",
"I.	c #3B0000",
"J.	c #BA0000",
"K.	c #D60000",
"L.	c #320000",
"M.	c #7B0000",
"N.	c #ED0000",
"O.	c #363A84",
"P.	c #BCBDD5",
"Q.	c #BBBCD4",
"R.	c #350000",
"S.	c #D00000",
"T.	c #E90000",
"U.	c #EA0000",
"V.	c #E40000",
"W.	c #960000",
"X.	c #1C0000",
"Y.	c #000000",
"Z.	c #A60000",
"`.	c #3B3E88",
" +	c #3A3D86",
".+	c #C0C1D7",
"++	c #BEBFD6",
"@+	c #BCBED4",
"#+	c #860000",
"$+	c #EB0000",
"%+	c #EF0000",
"&+	c #B60000",
"*+	c #310000",
"=+	c #030000",
"-+	c #3F428A",
";+	c #C3C4D9",
">+	c #C2C3D7",
",+	c #C0C0D7",
"'+	c #8F0000",
")+	c #D50000",
"!+	c #E00000",
"~+	c #D90000",
"{+	c #B00000",
"]+	c #3C0000",
"^+	c #C6C7DB",
"/+	c #C5C6DA",
"(+	c #540000",
"_+	c #6B0000",
":+	c #900000",
"<+	c #9F0000",
"[+	c #A50000",
"}+	c #9B0000",
"|+	c #8A0000",
"1+	c #700000",
"2+	c #4B0000",
"3+	c #1E0000",
"4+	c #46498E",
"5+	c #CACADD",
"6+	c #C8C9DC",
"7+	c #C7C8DB",
"8+	c #0E0000",
"9+	c #0C0000",
"0+	c #090000",
"a+	c #050000",
"b+	c #474A8F",
"c+	c #CCCCDD",
"d+	c #C9CADD",
"e+	c #4D5092",
"f+	c #4B4E90",
"g+	c #CECFE0",
"h+	c #CDCEDE",
"i+	c #505394",
"j+	c #4E5193",
"k+	c #D2D2E1",
"l+	c #D0D1E1",
"m+	c #4E0000",
"n+	c #545796",
"o+	c #535595",
"p+	c #D5D5E3",
"q+	c #D3D3E2",
"r+	c #DC0000",
"s+	c #5A0000",
"t+	c #595C9A",
"u+	c #585B99",
"v+	c #565996",
"w+	c #D7D8E5",
"x+	c #D6D6E3",
"y+	c #E80000",
"z+	c #F00000",
"A+	c #C70000",
"B+	c #F50000",
"C+	c #2E0000",
"D+	c #2B0000",
"E+	c #5E609C",
"F+	c #5A5C99",
"G+	c #DADAE6",
"H+	c #D9D9E6",
"I+	c #D7D7E4",
"J+	c #640000",
"K+	c #080000",
"L+	c #620000",
"M+	c #730000",
"N+	c #200000",
"O+	c #62649F",
"P+	c #5F629D",
"Q+	c #DCDCE7",
"R+	c #2A0000",
"S+	c #010000",
"T+	c #676AA2",
"U+	c #6668A0",
"V+	c #63659F",
"W+	c #DEDEE9",
"X+	c #DDDDE8",
"Y+	c #DCDCE8",
"Z+	c #6C6EA4",
"`+	c #676AA1",
" @	c #E0E0EA",
".@	c #E2E2EB",
"+@	c #E1E1EA",
"@@	c #DFE0E9",
"#@	c #7577AA",
"$@	c #7376A9",
"%@	c #7173A7",
"&@	c #E4E4EC",
"*@	c #E3E4EC",
"=@	c #E1E2EB",
"-@	c #7779AB",
";@	c #E5E6ED",
">@	c #E3E3EC",
",@	c #7E80AE",
"'@	c #E8E7EE",
")@	c #E7E7EE",
"!@	c #E5E5ED",
"~@	c #8485B3",
"{@	c #E9E9EF",
"]@	c #E7E8EE",
"^@	c #E6E7EE",
"/@	c #8A8BB7",
"(@	c #8889B5",
"_@	c #EAEAF0",
":@	c #E8E8EF",
"<@	c #9091BA",
"[@	c #8D90B8",
"}@	c #8B8DB7",
"|@	c #ECECF1",
"1@	c #EBEBF1",
"2@	c #E9EAEF",
"3@	c #9698BE",
"4@	c #9495BC",
"5@	c #9293BB",
"6@	c #EDEDF2",
"7@	c #EAEBF0",
"8@	c #9C9EC1",
"9@	c #999BC0",
"0@	c #9799BE",
"a@	c #9597BD",
"b@	c #EDEEF2",
"c@	c #A2A3C5",
"d@	c #A0A1C4",
"e@	c #9D9FC2",
"f@	c #9B9CC1",
"g@	c #EFEFF3",
"h@	c #EEEEF2",
"i@	c #A8AAC8",
"j@	c #A6A7C7",
"k@	c #A4A5C6",
"l@	c #AEAFCC",
"m@	c #ABADCB",
"n@	c #A9ABC9",
"o@	c #A7A8C8",
"p@	c #F0F0F4",
"q@	c #EFF0F3",
"r@	c #B3B4CF",
"s@	c #B1B2CE",
"t@	c #AFB0CC",
"u@	c #F1F1F4",
"v@	c #BBBDD4",
"w@	c #F2F2F5",
"x@	c #F0F0F3",
"y@	c #BABBD3",
"z@	c #C7C8DC",
"A@	c #C6C7DA",
"B@	c #C4C5D9",
"C@	c #C1C2D8",
"D@	c #BFC0D6",
"E@	c #D2D3E1",
"F@	c #D0D1E0",
"G@	c #CFCFE0",
"H@	c #CDCDDE",
"I@	c #CBCCDD",
"J@	c #C7C8DA",
"K@	c #F0F1F3",
"L@	c #EDEDF1",
"M@	c #DBDCE7",
"N@	c #D8D8E5",
"O@	c #D6D7E4",
"P@	c #D5D6E3",
"Q@	c #D1D2E1",
"R@	c #CFD0E0",
"S@	c #EBEBF0",
"T@	c #E6E6ED",
"U@	c #E2E3EC",
"V@	c #E1E2EA",
"W@	c #DFE0EA",
"X@	c #DEDFE8",
"Y@	c #DCDBE7",
"Z@	c #D9DAE6",
"`@	c #D6D6E4",
" #	c #E9EAF0",
".#	c #E8E9EF",
"+#	c #E4E4ED",
"@#	c #DFDFEA",
"                                                                                                                                ",
"                                                                                                                                ",
"                                                        . + @ # $ % & * = - ;                                                   ",
"                                                > , ' ) ! ~ { ] ^ # / ( _ : < - [ } |                                           ",
"                                          1 2 3 4 5 6 7 8 ) ~           ( & 9 0 a ; [ | b c                                     ",
"                                      d e f g h i j                               a - ; [ k c c                                 ",
"                                  l m n o p f                                           ; ; } q r                               ",
"                                s t l u                                                     ; v | b c                           ",
"                            w x y z A                                                           v [ | c                         ",
"                          B C D E                                                                   ; [ F q                     ",
"                        G H I J                                                                       K ; | b                   ",
"                      L M N O                                                                           - - [ }                 ",
"                    P Q R                                                                                 a - ; [               ",
"                  S T U                                                                                     0 0 -               ",
"                V W X Y                                                                                       9 Z <             ",
"                `  ...                                                                                          +.9 0           ",
"              @.#.$.                                                                                              % +.9         ",
"            %.&.*.                                                                                                =.=.(         ",
"            -.;.>.                                                                                                  ,.# =.      ",
"          '.).!.                                                                                                      ~.{.      ",
"          ].^./.                                                                                                      (._.~.    ",
"          :.<.                                                                                                        [.~ .     ",
"        }.|.1.                                                                                                          2.!     ",
"        3.4.                    5.5.                                                            5.                      ' 6.2.  ",
"      7.8.9.                  5.5.5.5.                                                      5.5.5.0.a.                    b.7   ",
"      c.d.e.                  5.5.5.5.f.                                                  5.5.5.5.g.h.                    i.> , ",
"      j.k.                    5.5.5.5.5.5.5.                                            5.5.5.5.5.g.l.                    m.n.o.",
"      p.q.                    5.5.5.5.5.5.5.5.                                      5.5.5.5.5.5.5.g.l.                    h i r.",
"      s.t.                    5.5.5.5.u.5.5.5.5.5.                                5.5.5.5.5.g.5.5.g.l.                      v.w.",
"      x.y.                    5.5.5.0.z.g.5.5.5.5.5.5.                        5.5.5.5.5.u.A.B.g.5.g.l.                      C.D.",
"    E.F.G.                    5.5.5.H.I.J.5.5.5.5.5.5.5.5.5.5.        5.5.5.5.5.5.5.5.5.K.L.M.N.5.g.l.                      d O.",
"    P.Q.E.                    5.5.5.H.R.    S.T.u.5.5.5.5.5.5.5.5.5.5.5.5.5.5.5.5.U.V.W.X.Y.Z.T.5.g.l.                      `. +",
"    .+++@+                    5.5.5.H.R.      #+H.$+5.5.5.5.5.5.5.5.5.5.5.5.5.g.%+&+*+=+Y.  T.5.5.g.l.                      -+m ",
"    ;+>+,+                    5.5.5.H.R.          '+)+H.f.g.u.u.u.u.u.g.u.!+~+{+]+Y.Y.      5.5.5.g.l.                      t l ",
"    ^+/+;+                    5.5.5.H.R.              (+_+M.:+<+[+[+}+|+1+2+3+Y.Y.          5.5.5.g.l.                      4+s ",
"    5+6+7+                    5.5.5.H.R.                      8+8+9+0+a+Y.                  5.5.5.g.l.                      x b+",
"      c+d+                    5.5.5.H.R.                                                    5.5.5.g.l.                      e+f+",
"      g+h+                    5.5.5.H.R.                      5.5.5.                        5.5.5.g.l.                      i+j+",
"      k+l+                    5.5.5.H.R.                    5.5.5.5.$+m+                    5.5.5.g.l.                      n+o+",
"      p+q+                    5.5.5.r+L.                    5.5.5.5.U._+                    5.5.5.u.s+                    t+u+v+",
"      w+x+p+                  5.y+z+A+0+                    5.5.5.5.B+C+                      g.N.0.D+                    E+M F+",
"      G+H+I+                      J+K+Y.                      V.u.y+L+Y.                        M+N+Y.                    O+P+  ",
"        Q+G+                                                    R+9+Y.S+                                                T+U+V+  ",
"        W+X+Y+                                                                                                          Z+S `+  ",
"           @W+                                                                                                          V W     ",
"          .@+@@@                                                                                                      #@$@%@    ",
"          &@*@=@                                                                                                      @.-@      ",
"            ;@&@>@                                                                                                  %.,@*.      ",
"            '@)@!@                                                                                                  ~@;.        ",
"              {@]@^@                                                                                              /@(@!.        ",
"                _@:@)@                                                                                          <@[@}@          ",
"                |@1@2@                                                                                        3@4@5@            ",
"                  6@|@7@                                                                                    8@9@0@a@            ",
"                    b@6@1@                                                                                c@d@e@f@              ",
"                      g@h@|@                                                                            i@j@k@e.                ",
"                        g@g@6@                                                                        l@m@n@o@                  ",
"                          p@q@h@b@                                                                  r@s@t@p.                    ",
"                            u@p@g@h@                                                            v@E.F.G.y.                      ",
"                              w@u@x@g@h@                                                      .+++P.y@                          ",
"                                  u@p@q@h@b@                                              z@A@B@C@D@                            ",
"                                      u@u@q@h@6@|@                                E@F@G@H@I@6+J@                                ",
"                                          u@K@g@h@L@1@_@:@                M@G+N@O@P@q+Q@R@h+                                    ",
"                                              p@g@g@h@|@S@2@:@)@T@&@U@V@W@X@X+Y@Z@N@`@                                          ",
"                                                      b@6@|@7@ #.#^@;@+#.@+@@#                                                  "};
